<?xml version='1.0' encoding='utf-8'?>
<svg xmlns="http://www.w3.org/2000/svg" width="720" height="360" viewBox="0 0 720 360">
  <rect x="0" y="0" width="720" height="360" fill="#FFFFFF" />
  <text x="360.0" y="24.0" text-anchor="middle" font-family="&quot;Segoe UI&quot;, Arial, sans-serif" font-size="14" font-weight="bold" fill="#333333">ClusterRegressionBenchmarks.ClusterIteration_SV</text>
  <line x1="80" y1="280.0" x2="690" y2="280.0" stroke="#E0E0E0" stroke-width="1" />
  <line x1="80" y1="250.00000000000003" x2="690" y2="250.00000000000003" stroke="#E0E0E0" stroke-width="1" />
  <line x1="80" y1="220.00000000000006" x2="690" y2="220.00000000000006" stroke="#E0E0E0" stroke-width="1" />
  <line x1="80" y1="190.0000000000001" x2="690" y2="190.0000000000001" stroke="#E0E0E0" stroke-width="1" />
  <line x1="80" y1="159.9999999999999" x2="690" y2="159.9999999999999" stroke="#E0E0E0" stroke-width="1" />
  <line x1="80" y1="129.9999999999999" x2="690" y2="129.9999999999999" stroke="#E0E0E0" stroke-width="1" />
  <line x1="80" y1="99.99999999999991" x2="690" y2="99.99999999999991" stroke="#E0E0E0" stroke-width="1" />
  <line x1="80" y1="69.99999999999997" x2="690" y2="69.99999999999997" stroke="#E0E0E0" stroke-width="1" />
  <line x1="80" y1="40.0" x2="690" y2="40.0" stroke="#E0E0E0" stroke-width="1" />
  <text x="72" y="284.0" text-anchor="end" font-family="&quot;Segoe UI&quot;, Arial, sans-serif" font-size="11" fill="#666666">15.40</text>
  <text x="72" y="254.00000000000003" text-anchor="end" font-family="&quot;Segoe UI&quot;, Arial, sans-serif" font-size="11" fill="#666666">15.60</text>
  <text x="72" y="224.00000000000006" text-anchor="end" font-family="&quot;Segoe UI&quot;, Arial, sans-serif" font-size="11" fill="#666666">15.80</text>
  <text x="72" y="194.0000000000001" text-anchor="end" font-family="&quot;Segoe UI&quot;, Arial, sans-serif" font-size="11" fill="#666666">16.00</text>
  <text x="72" y="163.9999999999999" text-anchor="end" font-family="&quot;Segoe UI&quot;, Arial, sans-serif" font-size="11" fill="#666666">16.20</text>
  <text x="72" y="133.9999999999999" text-anchor="end" font-family="&quot;Segoe UI&quot;, Arial, sans-serif" font-size="11" fill="#666666">16.40</text>
  <text x="72" y="103.99999999999991" text-anchor="end" font-family="&quot;Segoe UI&quot;, Arial, sans-serif" font-size="11" fill="#666666">16.60</text>
  <text x="72" y="73.99999999999997" text-anchor="end" font-family="&quot;Segoe UI&quot;, Arial, sans-serif" font-size="11" fill="#666666">16.80</text>
  <text x="72" y="44.0" text-anchor="end" font-family="&quot;Segoe UI&quot;, Arial, sans-serif" font-size="11" fill="#666666">17.00</text>
  <text x="72" y="32" text-anchor="end" font-family="&quot;Segoe UI&quot;, Arial, sans-serif" font-size="11" fill="#999999">(us)</text>
  <polyline points="80.0,86.1 283.3,232.5 486.7,207.0 690.0,255.2" fill="none" stroke="#4A90D9" stroke-width="2" />
  <line x1="80.0" y1="68.2" x2="80.0" y2="103.9" stroke="#4A90D9" stroke-width="1" stroke-opacity="0.5" />
  <circle cx="80.0" cy="86.1" r="4" fill="#4A90D9" />
  <line x1="283.3" y1="224.8" x2="283.3" y2="240.1" stroke="#4A90D9" stroke-width="1" stroke-opacity="0.5" />
  <circle cx="283.3" cy="232.5" r="4" fill="#4A90D9" />
  <line x1="486.7" y1="198.1" x2="486.7" y2="215.9" stroke="#4A90D9" stroke-width="1" stroke-opacity="0.5" />
  <circle cx="486.7" cy="207.0" r="4" fill="#4A90D9" />
  <line x1="690.0" y1="246.5" x2="690.0" y2="264.0" stroke="#4A90D9" stroke-width="1" stroke-opacity="0.5" />
  <circle cx="690.0" cy="255.2" r="4" fill="#4A90D9" />
  <text x="80.0" y="294.0" text-anchor="end" font-family="&quot;Segoe UI&quot;, Arial, sans-serif" font-size="10" fill="#666666" transform="rotate(-45, 80.0, 294.0)">d49948b</text>
  <text x="283.3" y="294.0" text-anchor="end" font-family="&quot;Segoe UI&quot;, Arial, sans-serif" font-size="10" fill="#666666" transform="rotate(-45, 283.3, 294.0)">c3de71a</text>
  <text x="486.7" y="294.0" text-anchor="end" font-family="&quot;Segoe UI&quot;, Arial, sans-serif" font-size="10" fill="#666666" transform="rotate(-45, 486.7, 294.0)">2a3e303</text>
  <text x="690.0" y="294.0" text-anchor="end" font-family="&quot;Segoe UI&quot;, Arial, sans-serif" font-size="10" fill="#666666" transform="rotate(-45, 690.0, 294.0)">e2374c4</text>
  <line x1="80" y1="40" x2="80" y2="280" stroke="#333333" stroke-width="1" />
  <line x1="80" y1="280" x2="690" y2="280" stroke="#333333" stroke-width="1" />
</svg>