<?xml version='1.0' encoding='utf-8'?>
<svg xmlns="http://www.w3.org/2000/svg" width="720" height="360" viewBox="0 0 720 360">
  <rect x="0" y="0" width="720" height="360" fill="#FFFFFF" />
  <text x="360.0" y="24.0" text-anchor="middle" font-family="&quot;Segoe UI&quot;, Arial, sans-serif" font-size="14" font-weight="bold" fill="#333333">EcsQueryBenchmarks.EnableDisable_1000</text>
  <line x1="80" y1="280.0" x2="690" y2="280.0" stroke="#E0E0E0" stroke-width="1" />
  <line x1="80" y1="253.33333333333334" x2="690" y2="253.33333333333334" stroke="#E0E0E0" stroke-width="1" />
  <line x1="80" y1="226.66666666666669" x2="690" y2="226.66666666666669" stroke="#E0E0E0" stroke-width="1" />
  <line x1="80" y1="200.0" x2="690" y2="200.0" stroke="#E0E0E0" stroke-width="1" />
  <line x1="80" y1="173.33333333333334" x2="690" y2="173.33333333333334" stroke="#E0E0E0" stroke-width="1" />
  <line x1="80" y1="146.66666666666666" x2="690" y2="146.66666666666666" stroke="#E0E0E0" stroke-width="1" />
  <line x1="80" y1="120.0" x2="690" y2="120.0" stroke="#E0E0E0" stroke-width="1" />
  <line x1="80" y1="93.33333333333334" x2="690" y2="93.33333333333334" stroke="#E0E0E0" stroke-width="1" />
  <line x1="80" y1="66.66666666666669" x2="690" y2="66.66666666666669" stroke="#E0E0E0" stroke-width="1" />
  <line x1="80" y1="40.0" x2="690" y2="40.0" stroke="#E0E0E0" stroke-width="1" />
  <text x="72" y="284.0" text-anchor="end" font-family="&quot;Segoe UI&quot;, Arial, sans-serif" font-size="11" fill="#666666">338.00</text>
  <text x="72" y="257.33333333333337" text-anchor="end" font-family="&quot;Segoe UI&quot;, Arial, sans-serif" font-size="11" fill="#666666">340.00</text>
  <text x="72" y="230.66666666666669" text-anchor="end" font-family="&quot;Segoe UI&quot;, Arial, sans-serif" font-size="11" fill="#666666">342.00</text>
  <text x="72" y="204.0" text-anchor="end" font-family="&quot;Segoe UI&quot;, Arial, sans-serif" font-size="11" fill="#666666">344.00</text>
  <text x="72" y="177.33333333333334" text-anchor="end" font-family="&quot;Segoe UI&quot;, Arial, sans-serif" font-size="11" fill="#666666">346.00</text>
  <text x="72" y="150.66666666666666" text-anchor="end" font-family="&quot;Segoe UI&quot;, Arial, sans-serif" font-size="11" fill="#666666">348.00</text>
  <text x="72" y="124.0" text-anchor="end" font-family="&quot;Segoe UI&quot;, Arial, sans-serif" font-size="11" fill="#666666">350.00</text>
  <text x="72" y="97.33333333333334" text-anchor="end" font-family="&quot;Segoe UI&quot;, Arial, sans-serif" font-size="11" fill="#666666">352.00</text>
  <text x="72" y="70.66666666666669" text-anchor="end" font-family="&quot;Segoe UI&quot;, Arial, sans-serif" font-size="11" fill="#666666">354.00</text>
  <text x="72" y="44.0" text-anchor="end" font-family="&quot;Segoe UI&quot;, Arial, sans-serif" font-size="11" fill="#666666">356.00</text>
  <text x="72" y="32" text-anchor="end" font-family="&quot;Segoe UI&quot;, Arial, sans-serif" font-size="11" fill="#999999">(us)</text>
  <polyline points="80.0,111.3 283.3,204.6 486.7,223.3 690.0,72.2" fill="none" stroke="#4A90D9" stroke-width="2" />
  <line x1="80.0" y1="85.5" x2="80.0" y2="137.0" stroke="#4A90D9" stroke-width="1" stroke-opacity="0.5" />
  <circle cx="80.0" cy="111.3" r="4" fill="#4A90D9" />
  <line x1="283.3" y1="162.3" x2="283.3" y2="246.9" stroke="#4A90D9" stroke-width="1" stroke-opacity="0.5" />
  <circle cx="283.3" cy="204.6" r="4" fill="#4A90D9" />
  <line x1="486.7" y1="176.4" x2="486.7" y2="270.1" stroke="#4A90D9" stroke-width="1" stroke-opacity="0.5" />
  <circle cx="486.7" cy="223.3" r="4" fill="#4A90D9" />
  <line x1="690.0" y1="63.2" x2="690.0" y2="81.2" stroke="#4A90D9" stroke-width="1" stroke-opacity="0.5" />
  <circle cx="690.0" cy="72.2" r="4" fill="#4A90D9" />
  <text x="80.0" y="294.0" text-anchor="end" font-family="&quot;Segoe UI&quot;, Arial, sans-serif" font-size="10" fill="#666666" transform="rotate(-45, 80.0, 294.0)">d49948b</text>
  <text x="283.3" y="294.0" text-anchor="end" font-family="&quot;Segoe UI&quot;, Arial, sans-serif" font-size="10" fill="#666666" transform="rotate(-45, 283.3, 294.0)">c3de71a</text>
  <text x="486.7" y="294.0" text-anchor="end" font-family="&quot;Segoe UI&quot;, Arial, sans-serif" font-size="10" fill="#666666" transform="rotate(-45, 486.7, 294.0)">2a3e303</text>
  <text x="690.0" y="294.0" text-anchor="end" font-family="&quot;Segoe UI&quot;, Arial, sans-serif" font-size="10" fill="#666666" transform="rotate(-45, 690.0, 294.0)">e2374c4</text>
  <line x1="80" y1="40" x2="80" y2="280" stroke="#333333" stroke-width="1" />
  <line x1="80" y1="280" x2="690" y2="280" stroke="#333333" stroke-width="1" />
</svg>