<?xml version='1.0' encoding='utf-8'?>
<svg xmlns="http://www.w3.org/2000/svg" width="720" height="360" viewBox="0 0 720 360">
  <rect x="0" y="0" width="720" height="360" fill="#FFFFFF" />
  <text x="360.0" y="24.0" text-anchor="middle" font-family="&quot;Segoe UI&quot;, Arial, sans-serif" font-size="14" font-weight="bold" fill="#333333">TyphonEventOffPathBenchmarks.BeginEcsSpawn_OffPath (LoopCount=1024)</text>
  <line x1="80" y1="280.0" x2="690" y2="280.0" stroke="#E0E0E0" stroke-width="1" />
  <line x1="80" y1="240.00000000000006" x2="690" y2="240.00000000000006" stroke="#E0E0E0" stroke-width="1" />
  <line x1="80" y1="200.0000000000001" x2="690" y2="200.0000000000001" stroke="#E0E0E0" stroke-width="1" />
  <line x1="80" y1="160.00000000000017" x2="690" y2="160.00000000000017" stroke="#E0E0E0" stroke-width="1" />
  <line x1="80" y1="119.99999999999989" x2="690" y2="119.99999999999989" stroke="#E0E0E0" stroke-width="1" />
  <line x1="80" y1="79.99999999999994" x2="690" y2="79.99999999999994" stroke="#E0E0E0" stroke-width="1" />
  <line x1="80" y1="40.0" x2="690" y2="40.0" stroke="#E0E0E0" stroke-width="1" />
  <text x="72" y="284.0" text-anchor="end" font-family="&quot;Segoe UI&quot;, Arial, sans-serif" font-size="11" fill="#666666">3.85</text>
  <text x="72" y="244.00000000000006" text-anchor="end" font-family="&quot;Segoe UI&quot;, Arial, sans-serif" font-size="11" fill="#666666">3.90</text>
  <text x="72" y="204.0000000000001" text-anchor="end" font-family="&quot;Segoe UI&quot;, Arial, sans-serif" font-size="11" fill="#666666">3.95</text>
  <text x="72" y="164.00000000000017" text-anchor="end" font-family="&quot;Segoe UI&quot;, Arial, sans-serif" font-size="11" fill="#666666">4.00</text>
  <text x="72" y="123.99999999999989" text-anchor="end" font-family="&quot;Segoe UI&quot;, Arial, sans-serif" font-size="11" fill="#666666">4.05</text>
  <text x="72" y="83.99999999999994" text-anchor="end" font-family="&quot;Segoe UI&quot;, Arial, sans-serif" font-size="11" fill="#666666">4.10</text>
  <text x="72" y="44.0" text-anchor="end" font-family="&quot;Segoe UI&quot;, Arial, sans-serif" font-size="11" fill="#666666">4.15</text>
  <text x="72" y="32" text-anchor="end" font-family="&quot;Segoe UI&quot;, Arial, sans-serif" font-size="11" fill="#999999">(us)</text>
  <polyline points="80.0,71.5 283.3,274.3 486.7,274.3 690.0,274.0" fill="none" stroke="#4A90D9" stroke-width="2" />
  <line x1="80.0" y1="71.1" x2="80.0" y2="72.0" stroke="#4A90D9" stroke-width="1" stroke-opacity="0.5" />
  <circle cx="80.0" cy="71.5" r="4" fill="#4A90D9" />
  <line x1="283.3" y1="273.8" x2="283.3" y2="274.9" stroke="#4A90D9" stroke-width="1" stroke-opacity="0.5" />
  <circle cx="283.3" cy="274.3" r="4" fill="#4A90D9" />
  <line x1="486.7" y1="273.2" x2="486.7" y2="275.3" stroke="#4A90D9" stroke-width="1" stroke-opacity="0.5" />
  <circle cx="486.7" cy="274.3" r="4" fill="#4A90D9" />
  <line x1="690.0" y1="272.8" x2="690.0" y2="275.2" stroke="#4A90D9" stroke-width="1" stroke-opacity="0.5" />
  <circle cx="690.0" cy="274.0" r="4" fill="#4A90D9" />
  <text x="80.0" y="294.0" text-anchor="end" font-family="&quot;Segoe UI&quot;, Arial, sans-serif" font-size="10" fill="#666666" transform="rotate(-45, 80.0, 294.0)">d49948b</text>
  <text x="283.3" y="294.0" text-anchor="end" font-family="&quot;Segoe UI&quot;, Arial, sans-serif" font-size="10" fill="#666666" transform="rotate(-45, 283.3, 294.0)">c3de71a</text>
  <text x="486.7" y="294.0" text-anchor="end" font-family="&quot;Segoe UI&quot;, Arial, sans-serif" font-size="10" fill="#666666" transform="rotate(-45, 486.7, 294.0)">2a3e303</text>
  <text x="690.0" y="294.0" text-anchor="end" font-family="&quot;Segoe UI&quot;, Arial, sans-serif" font-size="10" fill="#666666" transform="rotate(-45, 690.0, 294.0)">e2374c4</text>
  <line x1="80" y1="40" x2="80" y2="280" stroke="#333333" stroke-width="1" />
  <line x1="80" y1="280" x2="690" y2="280" stroke="#333333" stroke-width="1" />
</svg>